<svg width="27" height="30" viewBox="0 0 27 30" fill="none" xmlns="http://www.w3.org/2000/svg">
<path d="M14.9952 27H4.49855C4.10085 27 3.71945 26.842 3.43823 26.5607C3.15702 26.2794 2.99903 25.8978 2.99903 25.5V4.5C2.99903 4.10218 3.15702 3.72064 3.43823 3.43934C3.71945 3.15804 4.10085 3 4.49855 3H11.9961V7.5C11.9961 8.69347 12.4701 9.83807 13.3137 10.682C14.1574 11.5259 15.3016 12 16.4947 12H20.9932V15C20.9932 15.3978 21.1512 15.7794 21.4324 16.0607C21.7136 16.342 22.0951 16.5 22.4928 16.5C22.8905 16.5 23.2719 16.342 23.5531 16.0607C23.8343 15.7794 23.9923 15.3978 23.9923 15V10.5C23.9923 10.5 23.9923 10.5 23.9923 10.41C23.9767 10.2722 23.9465 10.1364 23.9023 10.005V9.87C23.8302 9.71577 23.734 9.574 23.6174 9.45L14.6203 0.45C14.4963 0.333324 14.3546 0.237121 14.2004 0.165C14.1557 0.15864 14.1102 0.15864 14.0655 0.165C13.9131 0.0776119 13.7449 0.0215163 13.5706 0H4.49855C3.30546 0 2.16124 0.474106 1.3176 1.31802C0.473953 2.16193 0 3.30653 0 4.5V25.5C0 26.6935 0.473953 27.8381 1.3176 28.682C2.16124 29.5259 3.30546 30 4.49855 30H14.9952C15.3929 30 15.7743 29.842 16.0555 29.5607C16.3367 29.2794 16.4947 28.8978 16.4947 28.5C16.4947 28.1022 16.3367 27.7206 16.0555 27.4393C15.7743 27.158 15.3929 27 14.9952 27ZM14.9952 5.115L18.8789 9H16.4947C16.097 9 15.7156 8.84196 15.4344 8.56066C15.1532 8.27936 14.9952 7.89782 14.9952 7.5V5.115ZM7.49758 9C7.09989 9 6.71848 9.15804 6.43727 9.43934C6.15605 9.72064 5.99807 10.1022 5.99807 10.5C5.99807 10.8978 6.15605 11.2794 6.43727 11.5607C6.71848 11.842 7.09989 12 7.49758 12H8.9971C9.3948 12 9.77621 11.842 10.0574 11.5607C10.3386 11.2794 10.4966 10.8978 10.4966 10.5C10.4966 10.1022 10.3386 9.72064 10.0574 9.43934C9.77621 9.15804 9.3948 9 8.9971 9H7.49758ZM16.4947 15H7.49758C7.09989 15 6.71848 15.158 6.43727 15.4393C6.15605 15.7206 5.99807 16.1022 5.99807 16.5C5.99807 16.8978 6.15605 17.2794 6.43727 17.5607C6.71848 17.842 7.09989 18 7.49758 18H16.4947C16.8924 18 17.2738 17.842 17.555 17.5607C17.8362 17.2794 17.9942 16.8978 17.9942 16.5C17.9942 16.1022 17.8362 15.7206 17.555 15.4393C17.2738 15.158 16.8924 15 16.4947 15ZM26.5564 22.935L23.5574 19.935C23.4148 19.7984 23.2466 19.6914 23.0626 19.62C22.6975 19.47 22.288 19.47 21.9229 19.62C21.7389 19.6914 21.5707 19.7984 21.4281 19.935L18.4291 22.935C18.1467 23.2175 17.9881 23.6005 17.9881 24C17.9881 24.3995 18.1467 24.7825 18.4291 25.065C18.7114 25.3475 19.0944 25.5061 19.4937 25.5061C19.893 25.5061 20.276 25.3475 20.5584 25.065L20.9932 24.615V28.5C20.9932 28.8978 21.1512 29.2794 21.4324 29.5607C21.7136 29.842 22.0951 30 22.4928 30C22.8905 30 23.2719 29.842 23.5531 29.5607C23.8343 29.2794 23.9923 28.8978 23.9923 28.5V24.615L24.4271 25.065C24.5665 25.2056 24.7324 25.3172 24.9151 25.3933C25.0978 25.4695 25.2938 25.5087 25.4918 25.5087C25.6897 25.5087 25.8857 25.4695 26.0685 25.3933C26.2512 25.3172 26.417 25.2056 26.5564 25.065C26.697 24.9256 26.8085 24.7597 26.8847 24.5769C26.9608 24.3941 27 24.198 27 24C27 23.802 26.9608 23.6059 26.8847 23.4231C26.8085 23.2403 26.697 23.0744 26.5564 22.935V22.935ZM13.4957 24C13.8933 24 14.2748 23.842 14.556 23.5607C14.8372 23.2794 14.9952 22.8978 14.9952 22.5C14.9952 22.1022 14.8372 21.7206 14.556 21.4393C14.2748 21.158 13.8933 21 13.4957 21H7.49758C7.09989 21 6.71848 21.158 6.43727 21.4393C6.15605 21.7206 5.99807 22.1022 5.99807 22.5C5.99807 22.8978 6.15605 23.2794 6.43727 23.5607C6.71848 23.842 7.09989 24 7.49758 24H13.4957Z" fill="white"/>
</svg>
